PathFileType	4	(X/Y/Z)	8_coords_data.trc
DataRate	CameraRate	NumFrames	NumMarkers	Units	OrigDataRate	OrigDataStartFrame	OrigNumFrames
30.0	30.0	6	21	m	30.0	23	55
Frame#	Time	THUMB_TIP	THUMB_IP	THUMB_MCP	THUMB_CMC	INDEX_TIP	INDEX_DIP	INDEX_PIP	INDEX_MCP	MIDDLE_TIP	MIDDLE_DIP	MIDDLE_PIP	MIDDLE_MCP	RING_TIP	RING_DIP	RING_PIP	RING_MCP	PINKY_TIP	PINKY_DIP	PINKY_PIP	PINKY_MCP	WRIST
X1	Y1	Z1	X2	Y2	Z2	X3	Y3	Z3	X4	Y4	Z4	X5	Y5	Z5	X6	Y6	Z6	X7	Y7	Z7	X8	Y8	Z8	X9	Y9	Z9	X10	Y10	Z10	X11	Y11	Z11	X12	Y12	Z12	X13	Y13	Z13	X14	Y14	Z14	X15	Y15	Z15	X16	Y16	Z16	X17	Y17	Z17	X18	Y18	Z18	X19	Y19	Z19	X20	Y20	Z20	X21	Y21	Z21
21	0.7333333333333302	0.47516727407370796	-0.053797431830275855	-0.17304872515237502	0.47360841534197196	-0.048224516665201	-0.15081108642841487	0.4708451698882553	-0.03895842709349995	-0.12122521042969336	0.4724327688143941	-0.03216823885024034	-0.0771654456405933	0.5539538418001645	0.028204652332762592	-0.183728021315403	0.5416110442757692	0.026398258306132405	-0.170598196872847	0.5257355180210892	0.021320659288253108	-0.1517781148498963	0.5092167073712386	0.0010777771923685675	-0.11814790948081627	0.5921850761280257	0.04966220885203221	-0.13302953859685815	0.5756490648188147	0.04623899863892278	-0.12648416146345243	0.5496687344545156	0.039066659306553175	-0.11539409687106988	0.5187558584954607	0.010579326275902079	-0.10026089239413022	0.6051916745132072	0.032521010324602084	-0.10032468523429844	0.5879997550198833	0.030525956403916088	-0.09527912639620906	0.5643085878667551	0.02684541298532883	-0.08854398140397318	0.5301897247530842	0.005843724657162319	-0.08310770499477971	0.6038698346740607	-0.02564253942954664	-0.05762038481934706	0.5873562587753216	-0.021379054094646244	-0.059077952600161354	0.5673983700516229	-0.015123878594289542	-0.06091302103272622	0.5328043518266363	-0.006882691424787479	-0.0669313420682427	0.4622830810018609	-0.023011742144276925	-0.051989820119430985
22	0.7666666666666633	0.47483767837657065	-0.05371401240478679	-0.1730954357701689	0.47346650900997544	-0.04816032287503469	-0.15084062893714442	0.47077980292849586	-0.03892862155452104	-0.12123695853699695	0.47241225498795103	-0.03216565242390723	-0.07717464642321936	0.5541372185290016	0.02796878699748173	-0.18365380291865602	0.5417452773366312	0.02625771255952003	-0.17055754323305913	0.5258028010173538	0.021263169279147953	-0.15177186200426765	0.5092170838367287	0.001045662092427846	-0.11815932739648716	0.5922544612834489	0.04950524497499609	-0.133048122533607	0.5757142670652533	0.04609968051596991	-0.12650410954922342	0.5497223972179264	0.03898211026489429	-0.1154058013195593	0.5187780937751958	0.010531173015215889	-0.10026835850186117	0.6052152761081369	0.0322656835301659	-0.10048134773928652	0.5880250503785481	0.0303578654980613	-0.09539643183809776	0.5643340147669489	0.026754776159279015	-0.08861907557870763	0.5302074199881942	0.005779862774654587	-0.08312823126164953	0.6038604912565039	-0.025853027665322603	-0.057771277869511084	0.5873540718814333	-0.021551643802013465	-0.05919823837168231	0.5674022413969397	-0.015267791180662571	-0.06100092402125468	0.5328149744851036	-0.006954328159602063	-0.0669583354697676	0.4622830810018609	-0.023011742144276925	-0.051989820119430985
23	0.7999999999999965	0.4746693501739361	-0.053810592051450445	-0.1730825285549823	0.47342463842535554	-0.04823191532969684	-0.1508265392780009	0.4707667834588818	-0.03896976105408656	-0.12122977754378433	0.4724070875212726	-0.03217822512216195	-0.07717215116345966	0.554284482490939	0.027626230730181556	-0.18365903160633498	0.5418555506781331	0.02601942769004828	-0.17058463533029833	0.5258595728606503	0.021130141254281254	-0.15181675306266815	0.5092145492527856	0.001014444735953135	-0.11817246622706784	0.5922986090776435	0.04933859596832957	-0.13308966438723743	0.5757482573297226	0.04598662859228142	-0.12654366013044077	0.5497429658735065	0.03893546756684085	-0.1154344074791342	0.5187817817837025	0.010514140524866877	-0.10027587292165047	0.6052148368096217	0.03206006526260896	-0.10062695702740077	0.588025522791712	0.03025002998103532	-0.09550335908521684	0.5643363068011025	0.026721222489004992	-0.08868070986116561	0.5302141661366915	0.0057524912199881095	-0.08313880951508373	0.6038553431366092	-0.02599168046878708	-0.057912634163038046	0.5873551264418743	-0.021656108840921284	-0.05930750608778074	0.5674068370326882	-0.015350606068441186	-0.061073406264348595	0.5328206286517884	-0.006987779042235798	-0.06696753596793853	0.4622830810018609	-0.023011742144276925	-0.051989820119430985
24	0.8333333333333297	0.4746256433801542	-0.053972594603956425	-0.17304380770043362	0.47345125874171623	-0.04835346706886401	-0.1507941734008464	0.47078883628223334	-0.039035695282228944	-0.12121528505832363	0.4724135753690971	-0.03218898428628425	-0.07716562250073272	0.554354751590861	0.027172468536157512	-0.18378811138123077	0.541909815389473	0.02567114418403027	-0.17071640192404453	0.5258999198066187	0.020899696872444973	-0.15193006734332146	0.509211232730485	0.0009958959113171018	-0.11818154848730805	0.5923374520620013	0.049139675742109756	-0.13315209073302123	0.5757777429939674	0.04584688172520268	-0.12659972145585902	0.5497545642412839	0.038889442200761626	-0.11547327760035736	0.5187789174432955	0.010496201057684673	-0.10029167413308954	0.6052083957880598	0.03182227449390862	-0.10078324214334239	0.5880217805816775	0.030125970706546212	-0.09561189694032929	0.5643298047105302	0.026703600615586187	-0.08874475479228289	0.5302095786591419	0.005744024689112948	-0.08315662584024741	0.6038389667713852	-0.02614127572029401	-0.05810498171389611	0.5873456331376272	-0.021765971978894516	-0.059456522618212826	0.5674039175654965	-0.015428532900558345	-0.06118188199197211	0.5328187974957306	-0.007002771587961143	-0.06699217174920669	0.4622830810018609	-0.023011742144276925	-0.051989820119430985
25	0.8666666666666629	0.47464559591224353	-0.05407159603920164	-0.1730165057954573	0.4735508212042723	-0.0484325351909245	-0.1507678550253945	0.4708857869943963	-0.039094663735208646	-0.12119554112646674	0.47243473850325035	-0.032211715247460804	-0.0771487958512681	0.554602692697476	0.026870229448576644	-0.18373026735447848	0.5421249700005305	0.02542384404326814	-0.17068364305708103	0.5260748521352261	0.02071161225389806	-0.15191669282341003	0.5093058304819524	0.0009206281933231697	-0.1181416583052024	0.5925480192655579	0.04887686586757056	-0.1330249235277585	0.5759674639444777	0.04562823684163542	-0.1265032983701424	0.5499126311295268	0.03873946482539192	-0.1154082518586051	0.518862258776399	0.010415405722549176	-0.10025008661109619	0.6053253295270745	0.03148277752775597	-0.10072209698441076	0.5881304426906016	0.029880075963290453	-0.09554839285911038	0.5644222682307274	0.02656463243184759	-0.08868470019626573	0.5302648812257315	0.005661552666821779	-0.08311199857784807	0.6038283898585903	-0.026410058200275532	-0.058120716626732793	0.5873454226594842	-0.021992045811564886	-0.05945973075899247	0.5674170653655836	-0.015610531508799208	-0.061176958108597856	0.5328478350997458	-0.007102033916885908	-0.06696118135427992	0.4622830810018608	-0.023011742144276925	-0.051989820119430985
26	0.8999999999999961	0.4745858436633982	-0.0538578125884952	-0.17307553597935466	0.4736127149481486	-0.04827926138018379	-0.15080598755735464	0.4709617667281165	-0.03903610599454144	-0.12120266760753179	0.472442706205767	-0.0322169586418144	-0.07714366117700355	0.5549159609811469	0.026957130609744917	-0.18343704129118332	0.5423804267163064	0.025515665355514305	-0.1704454071131496	0.5262547870406936	0.020785431420547118	-0.15174785473395325	0.5094084437429443	0.0008601209902693308	-0.11809048086504537	0.592791985739992	0.048702013147261414	-0.1327727529378105	0.5761906038600096	0.045459947828544456	-0.12630103507126467	0.5501016516646343	0.03859617904476109	-0.11527085821727984	0.5189715714835329	0.010319335464213597	-0.10018821434959357	0.6054814242713348	0.031201192583638182	-0.10053359170555964	0.588276881212401	0.029629796512132378	-0.095382435280081	0.5645475068311464	0.026391092925357795	-0.08855546160565703	0.5303370589051923	0.005556989768365828	-0.08305035194740235	0.6038295849613652	-0.026667118349339658	-0.05804004544063235	0.5873530466671977	-0.022227099409098727	-0.05938537724027715	0.5674374991637687	-0.01581052858424148	-0.061120486887605574	0.5328871019516279	-0.007231375604285217	-0.066912864433122	0.4622830810018609	-0.023011742144276925	-0.051989820119430985
